<?xml version="1.0" encoding="UTF-8" standalone="no"?>
<svg
   xmlns:dc="http://purl.org/dc/elements/1.1/"
   xmlns:cc="http://creativecommons.org/ns#"
   xmlns:rdf="http://www.w3.org/1999/02/22-rdf-syntax-ns#"
   xmlns:svg="http://www.w3.org/2000/svg"
   xmlns="http://www.w3.org/2000/svg"
   xmlns:xlink="http://www.w3.org/1999/xlink"
   xmlns:sodipodi="http://sodipodi.sourceforge.net/DTD/sodipodi-0.dtd"
   xmlns:inkscape="http://www.inkscape.org/namespaces/inkscape"
   id="IA-Logo-rgb"
   viewBox="0 0 426.5 140.95"
   version="1.1"
   sodipodi:docname="IA-Logo-screen_light.svg"
   inkscape:version="0.92.2 (5c3e80d, 2017-08-06)">
  <metadata
     id="metadata76">
    <rdf:RDF>
      <cc:Work
         rdf:about="">
        <dc:format>image/svg+xml</dc:format>
        <dc:type
           rdf:resource="http://purl.org/dc/dcmitype/StillImage" />
        <dc:title>IA-Logo-screen</dc:title>
      </cc:Work>
    </rdf:RDF>
  </metadata>
  <sodipodi:namedview
     pagecolor="#17212B"
     bordercolor="#666666"
     borderopacity="1"
     objecttolerance="10"
     gridtolerance="10"
     guidetolerance="10"
     inkscape:pageopacity="0"
     inkscape:pageshadow="2"
     inkscape:window-width="2560"
     inkscape:window-height="1377"
     id="namedview74"
     showgrid="false"
     inkscape:pagecheckerboard="true"
     inkscape:zoom="3.4794842"
     inkscape:cx="186.99762"
     inkscape:cy="46.463274"
     inkscape:window-x="0"
     inkscape:window-y="39"
     inkscape:window-maximized="1"
     inkscape:current-layer="IA-Logo-rgb" />
  <defs
     id="defs63">
    <linearGradient
       gradientUnits="userSpaceOnUse"
       y2="-82.12"
       x2="254.66"
       y1="55.69"
       x1="166.84"
       id="linearGradient926">
      <stop
         id="stop902"
         stop-opacity="0"
         stop-color="#1d1d1b"
         offset="0" />
      <stop
         id="stop904"
         stop-opacity="0.04"
         stop-color="#252523"
         offset="0" />
      <stop
         id="stop906"
         stop-opacity="0.22"
         stop-color="#4e4e4c"
         offset="0.02" />
      <stop
         id="stop908"
         stop-opacity="0.39"
         stop-color="#747473"
         offset="0.05" />
      <stop
         id="stop910"
         stop-opacity="0.53"
         stop-color="#959595"
         offset="0.07" />
      <stop
         id="stop912"
         stop-opacity="0.66"
         stop-color="#b2b2b2"
         offset="0.1" />
      <stop
         id="stop914"
         stop-opacity="0.77"
         stop-color="#cacaca"
         offset="0.13" />
      <stop
         id="stop916"
         stop-opacity="0.85"
         stop-color="#dedede"
         offset="0.17" />
      <stop
         id="stop918"
         stop-opacity="0.92"
         stop-color="#ededed"
         offset="0.21" />
      <stop
         id="stop920"
         stop-opacity="0.97"
         stop-color="#f7f7f7"
         offset="0.25" />
      <stop
         id="stop922"
         stop-opacity="0.99"
         stop-color="#fdfdfd"
         offset="0.51999998" />
      <stop
         id="stop924"
         stop-color="#fff"
         offset="0.52" />
    </linearGradient>
    <style
       id="style2">.cls-1{fill:url(#Unbenannter_Verlauf_37);}.cls-2{fill:url(#Unbenannter_Verlauf_37-2);}.cls-3{fill:url(#IA-Verlauf);}.cls-4{mask:url(#mask);}.cls-5{fill:url(#Unbenannter_Verlauf_834);}</style>
    <linearGradient
       id="Unbenannter_Verlauf_37"
       x1="166.84"
       y1="55.69"
       x2="254.66"
       y2="-82.12"
       gradientUnits="userSpaceOnUse">
      <stop
         offset="0"
         stop-color="#1d1d1b"
         stop-opacity="0"
         id="stop4" />
      <stop
         offset="0"
         stop-color="#252523"
         stop-opacity="0.04"
         id="stop6" />
      <stop
         offset="0.02"
         stop-color="#4e4e4c"
         stop-opacity="0.22"
         id="stop8" />
      <stop
         offset="0.05"
         stop-color="#747473"
         stop-opacity="0.39"
         id="stop10" />
      <stop
         offset="0.07"
         stop-color="#959595"
         stop-opacity="0.53"
         id="stop12" />
      <stop
         offset="0.1"
         stop-color="#b2b2b2"
         stop-opacity="0.66"
         id="stop14" />
      <stop
         offset="0.13"
         stop-color="#cacaca"
         stop-opacity="0.77"
         id="stop16" />
      <stop
         offset="0.17"
         stop-color="#dedede"
         stop-opacity="0.85"
         id="stop18" />
      <stop
         offset="0.21"
         stop-color="#ededed"
         stop-opacity="0.92"
         id="stop20" />
      <stop
         offset="0.25"
         stop-color="#f7f7f7"
         stop-opacity="0.97"
         id="stop22" />
      <stop
         offset="0.32"
         stop-color="#fdfdfd"
         stop-opacity="0.99"
         id="stop24" />
      <stop
         offset="0.52"
         stop-color="#fff"
         id="stop26" />
    </linearGradient>
    <linearGradient
       id="Unbenannter_Verlauf_37-2"
       x1="2004.62"
       y1="8219.34"
       x2="2092.43"
       y2="8081.54"
       gradientTransform="translate(2241.16 8304.71) rotate(180)"
       xlink:href="#Unbenannter_Verlauf_37" />
    <linearGradient
       id="IA-Verlauf"
       y1="71.089996"
       x2="426.5"
       y2="71.089996"
       gradientUnits="userSpaceOnUse"
       xlink:href="#linearGradient926">
      <stop
         offset="0"
         stop-color="#00358e"
         id="stop30" />
      <stop
         offset="0.06"
         stop-color="#003e95"
         id="stop32" />
      <stop
         offset="0.33"
         stop-color="#0061b3"
         id="stop34" />
      <stop
         offset="0.59"
         stop-color="#007bc8"
         id="stop36" />
      <stop
         offset="0.82"
         stop-color="#008bd5"
         id="stop38" />
      <stop
         offset="1"
         stop-color="#0090da"
         id="stop40" />
    </linearGradient>
    <mask
       id="mask"
       x="50.94"
       y="-0.07"
       width="301.5"
       height="141.2"
       maskUnits="userSpaceOnUse">
      <path
         class="cls-1"
         d="M322.53,49H154.78s-16.28-15.2-44.29-28.44C88.54,10.17,50.94-.07,50.94-.07H322.51Z"
         id="path43" />
      <path
         class="cls-2"
         d="M80.85,92.06H248.61s16.28,15.2,44.29,28.44c22,10.38,59.55,20.62,59.55,20.62H80.88Z"
         id="path45" />
    </mask>
    <linearGradient
       id="Unbenannter_Verlauf_834"
       x1="167.91"
       y1="0.26"
       x2="236.26"
       y2="141.93"
       gradientUnits="userSpaceOnUse">
      <stop
         offset="0.23"
         stop-color="#00358e"
         id="stop48" />
      <stop
         offset="0.43"
         stop-color="#003790"
         id="stop50" />
      <stop
         offset="0.52"
         stop-color="#003f96"
         id="stop52" />
      <stop
         offset="0.6"
         stop-color="#004ca1"
         id="stop54" />
      <stop
         offset="0.66"
         stop-color="#005fb1"
         id="stop56" />
      <stop
         offset="0.72"
         stop-color="#0077c5"
         id="stop58" />
      <stop
         offset="0.76"
         stop-color="#0090da"
         id="stop60" />
    </linearGradient>
  </defs>
  <title
     id="title65">IA-Logo-screen</title>
  <path
     class="cls-3"
     d="M0,57.53H5.58V84.64H0Zm11.69,0H17.5L27.77,75V57.53h5.42V84.64H27.77L17.12,66.55V84.64H11.69Zm27.61,0H54.14c3.68,0,5.42,1.74,5.42,5.42V79.22c0,3.68-1.74,5.42-5.42,5.42H39.3Zm13.9,22c.58,0,.78-.19.78-.77V63.42c0-.58-.19-.78-.78-.78H44.88V79.53Zm11.54-.31V57.53h5.58V78.75c0,.58.19.77.78.77h7.59c.58,0,.78-.19.78-.77V57.53H85V79.22c0,3.68-1.74,5.42-5.42,5.42H70.17C66.49,84.64,64.74,82.9,64.74,79.22Zm25.33,0V75.81h5.42v3c0,.58.19.78.77.78h7.2c.58,0,.78-.19.78-.78V75.58c0-.85-.31-1.08-1.32-1.32l-7.2-1.55c-3.41-.74-5.58-2.09-5.58-5.58V63c0-3.68,1.74-5.42,5.42-5.42h8.36c3.68,0,5.42,1.74,5.42,5.42v3.1h-5.42V63.34c0-.58-.19-.77-.77-.77H96.5c-.58,0-.78.19-.78.77v2.94c0,.85.31,1.08,1.32,1.32l7.2,1.55c3.41.74,5.58,2.09,5.58,5.58v4.49c0,3.68-1.74,5.42-5.42,5.42H95.49C91.81,84.64,90.07,82.9,90.07,79.22ZM120,62.57h-7.36v-5h20.29v5h-7.36V84.64H120Zm37.52,22.07h-6L147,75.07h-4.49v9.56H137V57.53h14.29c3.68,0,5.42,1.74,5.42,5.42V69.5c0,3.06-1.2,4.8-3.76,5.27Zm-7.2-14.52c.58,0,.77-.19.77-.77v-6c0-.58-.19-.77-.77-.77h-7.78v7.55Zm11.81-12.58h5.58V84.64h-5.58Zm26.1,21.22h-9.29l-1.67,5.89h-5.89l8.25-27.11h8.13L196,84.64H189.9Zm-1.43-5.11-3.21-11.38-3.21,11.38Zm12.9-16.11h5.58v22H217v5.11H199.7Zm43.64,21.22H234l-1.67,5.89h-5.89l8.25-27.11h8.13l8.25,27.11H245Zm-1.43-5.11-3.21-11.38-3.21,11.38Zm12.9-16.11h5.81L270.87,75V57.53h5.42V84.64h-5.42L260.22,66.55V84.64H254.8Zm42,21.22h-9.29l-1.67,5.89H280l8.25-27.11h8.13l8.25,27.11h-6.12Zm-1.43-5.11-3.21-11.38L289,73.64Zm12.9-16.11h5.58v22h11.69v5.11H308.28Zm23.43,17.85-8.83-17.85h6l5.61,12.08,5.62-12.08h6l-8.83,17.85v9.26h-5.58Zm23.08-12.82h-7.36v-5h20.29v5h-7.36V84.64h-5.58Zm17-5h5.58V84.64h-5.58Zm11,21.68V63c0-3.68,1.74-5.42,5.42-5.42h9c3.68,0,5.42,1.74,5.42,5.42v4.41H397V63.42c0-.58-.19-.78-.78-.78h-7.12c-.58,0-.78.19-.78.78V78.75c0,.58.19.77.78.77h7.12c.58,0,.78-.19.78-.77v-4h5.58v4.42c0,3.68-1.74,5.42-5.42,5.42h-9C384.52,84.64,382.78,82.9,382.78,79.22Zm24,0V75.81h5.42v3c0,.58.19.78.77.78h7.2c.58,0,.78-.19.78-.78V75.58c0-.85-.31-1.08-1.32-1.32l-7.2-1.55c-3.41-.74-5.58-2.09-5.58-5.58V63c0-3.68,1.74-5.42,5.42-5.42h8.36c3.68,0,5.42,1.74,5.42,5.42v3.1h-5.42V63.34c0-.58-.19-.77-.77-.77h-6.66c-.58,0-.78.19-.78.77v2.94c0,.85.31,1.08,1.32,1.32l7.2,1.55c3.41.74,5.58,2.09,5.58,5.58v4.49c0,3.68-1.74,5.42-5.42,5.42h-8.91C408.49,84.64,406.75,82.9,406.75,79.22Z"
     id="path67"
     style="fill-opacity:1;fill:#17212B" />
  <g
     class="cls-4"
     mask="url(#mask)"
     id="g71"
     style="fill-opacity:0.98823529;fill:#17212B;stroke:none;stroke-opacity:0.98823529">
    <path
       class="cls-5"
       d="M211.62,6.7a238.24,238.24,0,0,0-27.85-5.28A165.4,165.4,0,0,0,144.52,1a128.66,128.66,0,0,0-37.73,10.46L92.42,17.76c3.23,2,8.24.79,11.9-.21a223.88,223.88,0,0,1,78.89-7.3c16.13,1.3,21.29,2.57,37.2,5.35-47.13-6.06-72.3-3.85-115.24,7,3.5,1.35,6.95,2.3,11.1,1.35,43.51-9.88,76.24-10.3,129-.53-59.6-7.66-83.12-2.7-126.88,6,2.6,1.26,7,2.46,9.84,1.94,46.53-8.57,76.8-11.47,140.66-.79-61.36-8.13-91.68-2.33-135.49,7.68A16.6,16.6,0,0,0,143.52,40c42.92-8.7,74.61-13.17,120.46-5.89-47.22-2.94-80.27,2.56-116.57,12.56a14.82,14.82,0,0,0,8.91,1c28.29-5.57,41.24-8.72,70-10s69.07.3,96.24,9.94q-7.47-3.4-15-6.66Q278.89,28.5,249.34,18.2c-12.41-4.31-25-8.33-37.71-11.5m-40.75-.38a228.73,228.73,0,0,0-44.82,2.77c-2.06.33-3.43.52-6.48,1.16a140.32,140.32,0,0,1,18.2-4,197.31,197.31,0,0,1,55.3.85c4.63.73,11.14,1.62,15.62,3-7-1.16-8.22-1.15-12.3-1.74A239.38,239.38,0,0,0,170.88,6.32Zm21.06,127.93a238.24,238.24,0,0,0,27.85,5.28A165.4,165.4,0,0,0,259,140a128.66,128.66,0,0,0,37.73-10.46l14.37-6.34c-3.23-2-8.24-.79-11.9.21a223.88,223.88,0,0,1-78.89,7.3c-16.13-1.3-21.29-2.57-37.2-5.35,47.13,6.06,72.3,3.85,115.24-7-3.5-1.35-6.95-2.3-11.1-1.35-43.51,9.88-76.24,10.3-129,.53,59.6,7.66,83.12,2.7,126.88-6-2.6-1.26-7-2.46-9.84-1.94-46.53,8.57-76.8,11.47-140.66.79,61.36,8.13,91.68,2.33,135.49-7.68A16.6,16.6,0,0,0,260,101c-42.92,8.7-74.61,13.17-120.46,5.89,47.22,2.94,80.27-2.56,116.57-12.56a14.82,14.82,0,0,0-8.91-1c-28.29,5.57-41.24,8.72-70,10S108.13,103,81,93.38q7.47,3.4,15,6.66,28.71,12.42,58.27,22.72c12.41,4.31,25,8.33,37.71,11.5m40.75.38a228.73,228.73,0,0,0,44.82-2.77c2.06-.33,3.43-.52,6.48-1.16a140.32,140.32,0,0,1-18.2,4,197.31,197.31,0,0,1-55.3-.85c-4.63-.73-11.14-1.62-15.62-3,7,1.16,8.22,1.15,12.3,1.74A239.38,239.38,0,0,0,232.69,134.63Z"
       id="path69"
       style="fill-opacity:0.98823529;fill:#17212B;stroke:none;stroke-opacity:0.98823529" />
  </g>
</svg>
